<?xml version="1.0" encoding="UTF-8" standalone="no"?>
<svg width="200" height="200" viewBox="0 0 200 200" xmlns="http://www.w3.org/2000/svg">
  <!-- Background Circle -->
  <circle cx="100" cy="100" r="90" fill="#4a6baf" />
  
  <!-- Camera Lens -->
  <circle cx="100" cy="100" r="60" fill="#2c4072" stroke="#ffffff" stroke-width="3" />
  <circle cx="100" cy="100" r="50" fill="#1a2a4a" stroke="#ffffff" stroke-width="2" />
  <circle cx="100" cy="100" r="40" fill="#0f1a2e" stroke="#ffffff" stroke-width="1" />
  
  <!-- Lens Reflection -->
  <circle cx="80" cy="80" r="10" fill="#ffffff" opacity="0.7" />
  <circle cx="70" cy="70" r="5" fill="#ffffff" opacity="0.5" />
  
  <!-- Aperture Blades -->
  <path d="M100,50 L120,65 L115,90 L85,90 L80,65 Z" fill="#ffffff" opacity="0.2" />
  <path d="M100,150 L80,135 L85,110 L115,110 L120,135 Z" fill="#ffffff" opacity="0.2" />
  <path d="M50,100 L65,80 L90,85 L90,115 L65,120 Z" fill="#ffffff" opacity="0.2" />
  <path d="M150,100 L135,120 L110,115 L110,85 L135,80 Z" fill="#ffffff" opacity="0.2" />
  
  <!-- Stars (representing aesthetic quality) -->
  <polygon points="170,30 175,40 185,42 177,50 180,60 170,55 160,60 163,50 155,42 165,40" fill="#ffc107" />
  <polygon points="30,170 35,180 45,182 37,190 40,200 30,195 20,200 23,190 15,182 25,180" fill="#ffc107" />
</svg>
